<svg width="85" height="85" viewBox="0 0 85 85" fill="none" xmlns="http://www.w3.org/2000/svg">
<g filter="url(#filter0_d_4_838)">
<path d="M20.8164 0.481262C20.1697 0.827171 19.7185 1.18811 19.3726 1.66937C18.5003 2.90261 18.4251 3.48914 18.4251 9.62523V15.1146L17.0565 16.5434C11.9281 21.8824 8.67959 28.1839 7.44635 35.1923C7.28092 36.1397 7.07037 38.0497 6.96509 39.4183L6.79966 41.9149L6.27328 42.1104C5.98753 42.2157 5.46115 42.5616 5.1002 42.8924C3.92713 43.9753 3.97225 43.4489 4.01737 54.9841L4.06248 65.226L4.51367 65.9629C4.79942 66.4141 5.2506 66.8653 5.70178 67.151L6.43871 67.6022L12.3943 67.6473L18.3499 67.6924L19.7035 68.8204C24.847 73.1367 31.1786 75.8739 38.0215 76.7763C40.3676 77.077 44.7742 77.077 47.1805 76.7612C53.6174 75.934 59.8437 73.227 65.0774 68.9858L66.7017 67.6774H72.4467C78.1768 67.6774 78.2068 67.6774 78.9588 67.3165C79.7709 66.9405 80.4627 66.2487 80.7936 65.4666C80.944 65.0756 80.9891 62.9851 80.9891 54.7435C80.9891 44.8325 80.9741 44.4866 80.6883 43.9452C80.5229 43.6444 80.3124 43.2835 80.2071 43.1631C79.8612 42.7571 78.9738 42.1405 78.5678 42.0352C78.1768 41.945 78.1768 41.9299 78.0715 39.9597C77.6203 30.9361 74.2063 23.0855 67.8748 16.4682L66.5663 15.0996L66.5212 9.15901L66.4761 3.21844L66.0249 2.33111C65.5136 1.33851 64.5059 0.45118 63.5434 0.165436C63.1373 0.0451202 57.2569 0 42.3679 0H21.7639L20.8164 0.481262ZM63.0471 2.79733C63.2727 2.96277 63.5885 3.33875 63.7389 3.63954C63.9795 4.1208 63.9946 4.75246 63.9645 11.6104L63.9194 19.07L55.7981 13.4904C48.9251 8.76798 47.6016 7.91074 47.1504 7.91074C46.6992 7.91074 44.6689 9.20413 33.8405 16.4381L21.057 24.9654L21.0119 14.9341C20.9818 9.39964 21.0119 4.60207 21.057 4.24112C21.1773 3.42899 21.7789 2.72214 22.4858 2.5567C22.7715 2.49654 31.9305 2.45142 42.8191 2.45142C62.5658 2.48151 62.626 2.48151 63.0471 2.79733ZM55.7229 16.5885L63.9194 22.2132L63.9645 24.9805C63.9946 27.4319 63.9645 27.8079 63.7239 28.2591C63.408 28.8456 62.626 29.3269 61.9943 29.3269C61.4078 29.3269 60.8363 29.9285 60.8363 30.5751C60.8363 31.4926 61.6484 32.0189 62.7613 31.8084C64.3104 31.5226 65.4985 30.6203 66.1302 29.2517C66.461 28.5298 66.4761 28.3042 66.5513 23.7021L66.6265 18.8895L67.4687 19.8671C72.3565 25.5069 75.0937 32.3498 75.5148 39.9597L75.6201 41.8096H69.0629C64.5811 41.8096 62.3854 41.8698 62.1447 41.975C61.7687 42.1405 61.4379 42.6819 61.4379 43.0879C61.4379 43.494 61.7687 44.0354 62.1447 44.2009C62.3854 44.3212 64.8518 44.3663 70.0855 44.3663H77.6654L78.0865 44.7272L78.5076 45.0882V54.7134V64.3387L78.1467 64.7297L77.7857 65.1207H65.2429H52.7L52.339 64.7447L51.963 64.3838V58.759C51.963 53.2847 51.948 53.1192 51.6472 52.7282C51.4066 52.4124 51.2111 52.3372 50.6847 52.3372C50.1583 52.3372 49.9628 52.4124 49.7222 52.7282C49.4214 53.1192 49.4063 53.2847 49.4063 58.9395C49.4063 64.459 49.4214 64.7748 49.7222 65.4215C49.8876 65.7975 50.2486 66.3239 50.5042 66.5946C51.4818 67.6172 51.3464 67.5872 57.2268 67.6774L62.5658 67.7526L60.8363 68.8956C55.1664 72.6705 49.286 74.4602 42.5032 74.4602C35.6603 74.4602 29.6596 72.6103 23.9145 68.7602L22.4256 67.7526L27.7496 67.6774C33.6149 67.6022 33.5097 67.6172 34.5023 66.6096C35.525 65.602 35.4949 65.8125 35.54 59.12L35.5851 53.044L35.2542 52.6981C34.8331 52.247 33.9458 52.2169 33.4495 52.6229L33.0886 52.9087L33.0134 58.7289L32.9382 64.5492L32.5772 64.835C32.2464 65.1057 31.8102 65.1207 19.7336 65.1207H7.2358L6.8899 64.7898L6.54399 64.474V54.7886V45.1032L6.91997 44.7423L7.28092 44.3663H15.0413H22.8016L23.1926 43.9753C23.5085 43.6444 23.5686 43.494 23.4934 42.9827C23.343 41.8246 23.734 41.8848 16.1542 41.8397L9.3714 41.7946L9.47668 40.1101C9.77746 35.1622 10.7851 31.2068 12.8455 26.9958C14.0637 24.5293 15.4924 22.2884 17.1618 20.3032L18.3499 18.8745L18.4251 23.6871C18.5154 29.0261 18.5304 29.1915 19.6132 30.4248C20.7111 31.673 23.1926 32.2746 23.8544 31.4474C24.5011 30.6503 23.9446 29.3269 22.967 29.3269C22.4858 29.3269 21.6586 28.8155 21.3277 28.3343C21.1322 28.0335 21.6586 27.6725 34.0962 19.3708C43.3605 13.1896 47.1354 10.7532 47.3008 10.8434C47.4211 10.9036 51.2111 13.4904 55.7229 16.5885Z" fill="#80D3A4"/>
<path d="M27.5988 4.94775C26.7717 5.20342 25.9445 5.74484 25.373 6.40658C23.2675 8.7828 23.9894 12.5577 26.8018 13.9263C29.178 15.0994 32.0806 14.1368 33.2837 11.8057C33.8101 10.768 33.9154 9.06855 33.5244 7.9406C33.1183 6.78256 31.7046 5.36886 30.6067 5.05303C29.7645 4.79736 28.2455 4.75224 27.5988 4.94775ZM30.1255 7.66989C31.5843 8.55721 31.5542 10.6928 30.0653 11.535C29.3284 11.9561 28.6215 11.9712 27.8996 11.5651C26.7416 10.9034 26.3656 9.36934 27.1176 8.30154C27.7643 7.39918 29.178 7.09839 30.1255 7.66989Z" fill="#80D3A4"/>
<path d="M39.3446 22.063C39.089 22.2735 38.9536 22.7247 38.6829 24.2587L38.352 26.1838L37.179 26.6951C36.5323 26.9658 35.5246 27.5373 34.9531 27.9735L33.9004 28.7405L32.246 28.1239C30.5315 27.5072 30.0352 27.417 29.554 27.6727C29.1329 27.8983 26.6965 32.2447 26.6965 32.756C26.6965 33.3275 27.0123 33.7035 28.4561 34.8766L29.6292 35.8541V38.5011V41.148L28.4561 42.1256C27.0123 43.2986 26.6965 43.6746 26.6965 44.2461C26.6965 44.7575 29.1329 49.1039 29.554 49.3294C30.0352 49.5851 30.5315 49.4949 32.246 48.8783L33.9004 48.2617L34.8478 48.9685C35.8404 49.6904 36.9233 50.292 37.8106 50.6078L38.337 50.7883L38.6829 52.7284C38.9536 54.2774 39.089 54.7286 39.3446 54.9392C39.6304 55.1647 40.0214 55.1948 42.5631 55.1948C45.2551 55.1948 45.4657 55.1798 45.7213 54.894C45.9469 54.6384 46.1876 53.6458 46.6989 50.7131C46.6989 50.698 46.7891 50.683 46.9095 50.683C47.2704 50.683 49.4511 49.5099 50.2783 48.8783L51.0754 48.2617L52.7297 48.8783C54.5645 49.54 55.0909 49.6002 55.5421 49.2091C55.7226 49.0738 56.3993 48.006 57.0611 46.8479C58.7154 43.9754 58.7154 44.0055 56.8204 42.3662L55.3466 41.0878L55.3616 38.486L55.3767 35.8842L56.8355 34.6209C58.7004 33.0117 58.7004 33.0418 57.1212 30.2444C56.4745 29.1165 55.7978 28.0487 55.6173 27.8532C55.1511 27.3869 54.6247 27.432 52.7448 28.1389L51.0904 28.7555L50.2933 28.1239C49.4511 27.4922 47.2704 26.3191 46.9095 26.3191C46.7891 26.3191 46.6989 26.3041 46.6989 26.274C46.1124 22.9052 45.962 22.3337 45.6462 22.078C45.3454 21.8374 44.9844 21.8073 42.4879 21.8073C40.0214 21.8073 39.6304 21.8374 39.3446 22.063ZM44.0369 26.0935C44.3678 28.0336 44.5032 28.2141 45.9469 28.7254C47.1351 29.1315 48.3081 29.8233 49.3759 30.7407C50.3836 31.598 50.6844 31.613 52.6696 30.9062C53.4817 30.6204 54.1585 30.3798 54.1735 30.3798C54.1885 30.3798 54.4593 30.846 54.7901 31.4175L55.3917 32.4703L54.0532 33.5681C53.2561 34.2148 52.6696 34.8164 52.6094 35.042C52.5643 35.2375 52.5944 35.8692 52.6846 36.4256C52.9102 37.7341 52.9102 39.2681 52.6846 40.5765C52.5944 41.133 52.5643 41.7646 52.6094 41.9601C52.6696 42.1857 53.2711 42.8023 54.0532 43.449L55.3917 44.5469L54.7901 45.5846C54.4593 46.1561 54.1735 46.6224 54.1434 46.6224C54.1284 46.6224 53.4516 46.3817 52.6545 46.096C50.6994 45.3891 50.3836 45.4042 49.3759 46.2614C48.3081 47.1788 47.1351 47.8706 45.9469 48.2767C44.5182 48.773 44.3528 48.9986 44.067 50.683C43.691 53.0291 43.8565 52.7885 42.4879 52.7885C41.8261 52.7885 41.2847 52.7735 41.2847 52.7434C41.2847 52.4125 40.638 49.2242 40.5327 49.0287C40.4425 48.8783 40.0364 48.6376 39.6003 48.5023C38.337 48.0812 36.6225 47.1337 35.675 46.3216C34.5922 45.4042 34.3215 45.3741 32.3513 46.096C31.5542 46.3817 30.8624 46.6224 30.8323 46.6224C30.7571 46.6224 29.7044 44.7123 29.7044 44.562C29.7044 44.5018 30.2909 43.9754 30.9827 43.3889C31.7497 42.7723 32.3062 42.2008 32.3663 41.9752C32.4115 41.7797 32.3814 41.1029 32.2761 40.4712C32.0656 39.0274 32.0656 37.9747 32.2761 36.5309C32.3814 35.8992 32.4115 35.2225 32.3663 35.027C32.3062 34.8014 31.7497 34.2299 30.9827 33.6133C30.2909 33.0267 29.7044 32.5003 29.7044 32.4402C29.7044 32.2898 30.7571 30.3798 30.8323 30.3798C30.8624 30.3798 31.5542 30.6204 32.3513 30.9062C34.3215 31.628 34.5922 31.598 35.675 30.6806C36.6225 29.8684 38.337 28.921 39.6003 28.4998C40.0364 28.3645 40.4425 28.1389 40.5177 27.9885C40.5929 27.8532 40.7734 27.1313 40.9087 26.3793C41.3148 24.1083 41.1193 24.349 42.518 24.3941L43.7512 24.4392L44.0369 26.0935Z" fill="#80D3A4"/>
<path d="M40.232 31.4023C39.074 31.7933 38.1416 32.3648 37.2392 33.2672C35.7804 34.726 35.1186 36.3503 35.1186 38.5009C35.1186 40.6515 35.7804 42.2758 37.2392 43.7497C38.8334 45.3288 40.4576 45.9454 42.8489 45.8401C44.6837 45.7499 45.7064 45.404 47.0449 44.3964C50.8499 41.4937 50.8499 35.5081 47.0449 32.6054C45.6462 31.5527 44.6987 31.2369 42.7135 31.1767C41.4202 31.1466 40.8787 31.1917 40.232 31.4023ZM44.5183 34.1244C48.3233 35.9442 48.2481 41.1779 44.3829 42.9526C43.6009 43.2985 43.3753 43.3436 42.2774 43.2834C40.4125 43.1782 39.089 42.351 38.1867 40.7267C37.7957 40.0048 37.7505 39.7943 37.7505 38.5009C37.7505 37.2977 37.8107 36.9669 38.0964 36.4255C38.6379 35.4178 39.4199 34.6358 40.4125 34.1395C41.1946 33.7635 41.5104 33.6883 42.4729 33.6883C43.4204 33.6883 43.7663 33.7635 44.5183 34.1244Z" fill="#80D3A4"/>
<path d="M14.7251 46.9229C13.898 47.2537 13.913 47.1785 13.913 54.7133C13.913 61.842 13.928 62.0826 14.4995 62.5188C15.1011 62.985 15.5523 62.7744 21.3575 59.2552C24.5008 57.3452 27.1627 55.6758 27.268 55.5405C27.5688 55.1194 27.4936 54.232 27.1176 53.8861C26.8018 53.6004 16.8307 47.4944 15.8381 46.983C15.3869 46.7424 15.1763 46.7274 14.7251 46.9229ZM20.2296 52.6379C21.929 53.6605 23.4029 54.5629 23.4931 54.6531C23.6435 54.7885 22.8314 55.3299 20.2145 56.9241C18.3045 58.0821 16.6803 59.0447 16.6051 59.0747C16.5299 59.1048 16.4697 57.27 16.4697 54.7434V50.3519L16.8156 50.5624C16.9961 50.6827 18.5301 51.6152 20.2296 52.6379Z" fill="#80D3A4"/>
<path d="M63.7988 48.6077C63.1822 49.0588 63.2724 50.4876 63.9191 50.7433C64.0544 50.7884 66.3856 50.8335 69.1077 50.8335C73.7248 50.8335 74.0557 50.8185 74.3865 50.5477C74.6572 50.3372 74.7475 50.1116 74.7475 49.6303C74.7475 49.1491 74.6572 48.9235 74.3865 48.7129C74.0557 48.4422 73.7248 48.4272 69.0475 48.4272C65.2877 48.4272 63.9943 48.4723 63.7988 48.6077Z" fill="#80D3A4"/>
<path d="M57.1665 53.8563C56.8507 54.0969 56.7755 54.2924 56.7755 54.8188C56.7755 55.3452 56.8507 55.5407 57.1665 55.7813C57.5575 56.0972 57.7079 56.0972 65.6638 56.0972C71.2735 56.0972 73.8753 56.052 74.1159 55.9317C74.898 55.5708 75.0183 54.6233 74.3866 53.9766L73.9505 53.5405H65.754C57.6929 53.5405 57.5575 53.5405 57.1665 53.8563Z" fill="#80D3A4"/>
<path d="M57.0763 59.1049C56.8807 59.3004 56.7755 59.6012 56.7755 60.0073C56.7755 60.4134 56.8807 60.7141 57.0763 60.9097C57.377 61.2104 57.5726 61.2104 65.769 61.2104C74.0858 61.2104 74.1761 61.2104 74.4618 60.8946C74.8829 60.4284 74.8378 59.4508 74.3866 59.0899C74.0558 58.8192 73.6497 58.8041 65.7089 58.8041C57.5726 58.8041 57.377 58.8041 57.0763 59.1049Z" fill="#80D3A4"/>
</g>
<defs>
<filter id="filter0_d_4_838" x="0" y="0" width="84.9891" height="85" filterUnits="userSpaceOnUse" color-interpolation-filters="sRGB">
<feFlood flood-opacity="0" result="BackgroundImageFix"/>
<feColorMatrix in="SourceAlpha" type="matrix" values="0 0 0 0 0 0 0 0 0 0 0 0 0 0 0 0 0 0 127 0" result="hardAlpha"/>
<feOffset dy="4"/>
<feGaussianBlur stdDeviation="2"/>
<feComposite in2="hardAlpha" operator="out"/>
<feColorMatrix type="matrix" values="0 0 0 0 0 0 0 0 0 0 0 0 0 0 0 0 0 0 0.25 0"/>
<feBlend mode="normal" in2="BackgroundImageFix" result="effect1_dropShadow_4_838"/>
<feBlend mode="normal" in="SourceGraphic" in2="effect1_dropShadow_4_838" result="shape"/>
</filter>
</defs>
</svg>
