<svg width="71" height="71" viewBox="0 0 71 71" fill="none" xmlns="http://www.w3.org/2000/svg">
<rect width="71" height="71" rx="14" fill="#E3FFDF"/>
<path fill-rule="evenodd" clip-rule="evenodd" d="M37.5846 22.9837C37.942 23.1358 38.1739 23.4867 38.1739 23.875V32.9143H43.2502C43.5947 32.9143 43.9132 33.0973 44.0869 33.3948C44.2605 33.6924 44.2631 34.0597 44.0936 34.3597L43.458 35.4845C41.0476 39.7504 37.9736 43.6055 34.3513 46.9052L33.3238 47.8412C33.0402 48.0995 32.6309 48.1662 32.2799 48.0112C31.929 47.8561 31.7027 47.5086 31.7027 47.125V38.1623H26.4585C25.9235 38.1623 25.4897 37.7286 25.4897 37.1936C25.4897 37.0203 25.5352 36.8576 25.6149 36.7169C27.8867 32.5171 30.7953 28.6945 34.2372 25.3849L36.5337 23.1767C36.8137 22.9075 37.2273 22.8316 37.5846 22.9837ZM28.1177 36.2248H32.6714C33.2064 36.2248 33.6402 36.6586 33.6402 37.1936V44.9221C36.7642 41.9699 39.4419 38.5776 41.5883 34.8519H37.2052C36.6701 34.8519 36.2364 34.4181 36.2364 33.8831V26.1504L35.5801 26.7815C32.6728 29.577 30.1628 32.7545 28.1177 36.2248Z" fill="#6AAF60"/>
</svg>
